<svg xmlns="http://www.w3.org/2000/svg" xmlns:xlink="http://www.w3.org/1999/xlink" width="1080" zoomAndPan="magnify" viewBox="0 0 810 809.999993" height="1080" preserveAspectRatio="xMidYMid meet" version="1.0"><defs><filter x="0%" y="0%" width="100%" height="100%" id="d343303c84"><feColorMatrix values="0 0 0 0 1 0 0 0 0 1 0 0 0 0 1 0 0 0 1 0" color-interpolation-filters="sRGB"/></filter><mask id="b2d85818cc"><g filter="url(#d343303c84)"><rect x="-81" width="972" fill="#000000" y="-80.999999" height="971.999992" fill-opacity="0.22"/></g></mask><clipPath id="6ecf458ae8"><path d="M 0.0703125 0.0703125 L 319.929688 0.0703125 L 319.929688 319.929688 L 0.0703125 319.929688 Z M 0.0703125 0.0703125 " clip-rule="nonzero"/></clipPath><clipPath id="7d84df42fe"><path d="M 160 0.0703125 C 71.671875 0.0703125 0.0703125 71.671875 0.0703125 160 C 0.0703125 248.328125 71.671875 319.929688 160 319.929688 C 248.328125 319.929688 319.929688 248.328125 319.929688 160 C 319.929688 71.671875 248.328125 0.0703125 160 0.0703125 Z M 160 0.0703125 " clip-rule="nonzero"/></clipPath><clipPath id="58acedb58f"><rect x="0" width="320" y="0" height="320"/></clipPath><clipPath id="4965e6f863"><path d="M 302.1875 302.304688 L 507.6875 302.304688 L 507.6875 507.804688 L 302.1875 507.804688 Z M 302.1875 302.304688 " clip-rule="nonzero"/></clipPath></defs><g mask="url(#b2d85818cc)"><g transform="matrix(1, 0, 0, 1, 245, 245)"><g clip-path="url(#58acedb58f)"><g clip-path="url(#6ecf458ae8)"><g clip-path="url(#7d84df42fe)"><path fill="#ffffff" d="M 0.0703125 0.0703125 L 319.929688 0.0703125 L 319.929688 319.929688 L 0.0703125 319.929688 Z M 0.0703125 0.0703125 " fill-opacity="1" fill-rule="nonzero"/></g></g></g></g></g><g clip-path="url(#4965e6f863)"><path fill="#000000" d="M 413.746094 302.304688 L 507.6875 302.304688 L 507.6875 396.246094 L 495.945312 396.246094 L 495.945312 322.351562 L 420.828125 397.464844 L 412.527344 389.164062 L 487.640625 314.046875 L 413.746094 314.046875 Z M 313.929688 413.863281 L 302.1875 413.863281 L 302.1875 507.804688 L 396.128906 507.804688 L 396.128906 496.0625 L 322.234375 496.0625 L 397.347656 420.945312 L 389.046875 412.644531 L 313.929688 487.757812 Z M 313.929688 413.863281 " fill-opacity="1" fill-rule="nonzero"/></g></svg>