<svg xmlns="http://www.w3.org/2000/svg" xmlns:xlink="http://www.w3.org/1999/xlink" width="1080" zoomAndPan="magnify" viewBox="0 0 810 809.999993" height="1080" preserveAspectRatio="xMidYMid meet" version="1.0"><defs><filter x="0%" y="0%" width="100%" height="100%" id="1cc07453cb"><feColorMatrix values="0 0 0 0 1 0 0 0 0 1 0 0 0 0 1 0 0 0 1 0" color-interpolation-filters="sRGB"/></filter><mask id="32874c6643"><g filter="url(#1cc07453cb)"><rect x="-81" width="972" fill="#000000" y="-80.999999" height="971.999992" fill-opacity="0.21"/></g></mask><clipPath id="6d594c53d8"><rect x="0" width="810" y="0" height="810"/></clipPath><mask id="c44772fb68"><g filter="url(#1cc07453cb)"><rect x="-81" width="972" fill="#000000" y="-80.999999" height="971.999992" fill-opacity="0.21"/></g></mask><clipPath id="1d8b80e4a5"><path d="M 0.761719 0.722656 L 17.316406 0.722656 L 17.316406 17.277344 L 0.761719 17.277344 Z M 0.761719 0.722656 " clip-rule="nonzero"/></clipPath><clipPath id="8130414718"><path d="M 9.039062 0.722656 C 4.46875 0.722656 0.761719 4.429688 0.761719 9 C 0.761719 13.570312 4.46875 17.277344 9.039062 17.277344 C 13.613281 17.277344 17.316406 13.570312 17.316406 9 C 17.316406 4.429688 13.613281 0.722656 9.039062 0.722656 Z M 9.039062 0.722656 " clip-rule="nonzero"/></clipPath><clipPath id="219473e5b1"><rect x="0" width="18" y="0" height="18"/></clipPath></defs><g mask="url(#32874c6643)"><g transform="matrix(1, 0, 0, 1, 0, 0.000000000000039746)"><g clip-path="url(#6d594c53d8)"><path fill="#000000" d="M 405 58.972656 C 595.800781 58.972656 751.027344 214.199219 751.027344 405 C 751.027344 595.800781 595.800781 751.027344 405 751.027344 C 214.199219 751.027344 58.972656 595.800781 58.972656 405 C 58.972656 214.199219 214.199219 58.972656 405 58.972656 Z M 405 810 C 628.320312 810 810 628.320312 810 405 C 810 181.679688 628.320312 0 405 0 C 181.679688 0 0 181.679688 0 405 C 0 628.320312 181.679688 810 405 810 " fill-opacity="1" fill-rule="nonzero"/><path fill="#000000" d="M 257.667969 552.332031 C 264.578125 559.242188 273.628906 562.695312 282.683594 562.695312 C 291.738281 562.695312 300.792969 559.242188 307.707031 552.332031 L 405 455.035156 L 502.296875 552.332031 C 509.207031 559.242188 518.261719 562.695312 527.316406 562.695312 C 536.371094 562.695312 545.425781 559.242188 552.332031 552.332031 C 566.152344 538.511719 566.152344 516.117188 552.332031 502.296875 L 455.035156 405 L 552.332031 307.707031 C 566.152344 293.882812 566.152344 271.488281 552.332031 257.667969 C 538.515625 243.855469 516.117188 243.847656 502.296875 257.667969 L 405 354.964844 L 307.707031 257.667969 C 293.882812 243.855469 271.484375 243.855469 257.667969 257.667969 C 243.847656 271.488281 243.847656 293.882812 257.667969 307.707031 L 354.964844 405 L 257.667969 502.296875 C 243.847656 516.117188 243.847656 538.511719 257.667969 552.332031 " fill-opacity="1" fill-rule="nonzero"/></g></g></g><g mask="url(#c44772fb68)"><g transform="matrix(1, 0, 0, 1, 751, 72)"><g clip-path="url(#219473e5b1)"><g clip-path="url(#1d8b80e4a5)"><g clip-path="url(#8130414718)"><path fill="#000000" d="M 0.761719 0.722656 L 17.316406 0.722656 L 17.316406 17.277344 L 0.761719 17.277344 Z M 0.761719 0.722656 " fill-opacity="1" fill-rule="nonzero"/></g></g></g></g></g></svg>